HIERARCHY
ROOT root
{
	OFFSET	0	13.1	24.9
	CHANNELS 6  Xposition Yposition Zposition Xrotation Yrotation Zrotation
	JOINT spine_1
	{
		OFFSET	0	9.99999	0
		CHANNELS 3  Xrotation Yrotation Zrotation
		JOINT spine_2
		{
			OFFSET	0	112	-10
			CHANNELS 3  Xrotation Yrotation Zrotation
			JOINT spine_3
			{
				OFFSET	0	206.5	19.3
				CHANNELS 3  Xrotation Yrotation Zrotation
				JOINT spine_4
				{
					OFFSET	0	110.4	14.6
					CHANNELS 3  Xrotation Yrotation Zrotation
					JOINT neck_1
					{
						OFFSET	0	71.8	-50.3
						CHANNELS 3  Xrotation Yrotation Zrotation
						JOINT neck_2
						{
							OFFSET	0	86.2	-25.8
							CHANNELS 3  Xrotation Yrotation Zrotation
							JOINT head_ee
							{
								OFFSET	0	179.8	-8.7
								CHANNELS 3  Xrotation Yrotation Zrotation
								End Site
								{
									OFFSET	1	0	0
								}
							}
						}
					}
					JOINT left_clavicle
					{
						OFFSET	-43.2	22.4	-70.8
						CHANNELS 3  Xrotation Yrotation Zrotation
						JOINT left_shoulder
						{
							OFFSET	-93.9	-5.79999	48.7
							CHANNELS 3  Xrotation Yrotation Zrotation
							JOINT left_elbow
							{
								OFFSET	-291.4	-30.8	15.2
								CHANNELS 3  Xrotation Yrotation Zrotation
								JOINT left_lowarm_twist
								{
									OFFSET	-110.7	-3.89999	13.6
									CHANNELS 3  Xrotation Yrotation Zrotation
									JOINT left_hand
									{
										OFFSET	-110.7	-3.89999	13.6
										CHANNELS 3  Xrotation Yrotation Zrotation
										JOINT left_ee
										{
											OFFSET	-80.8	-5.10001	12.1
											CHANNELS 3  Xrotation Yrotation Zrotation
											End Site
											{
												OFFSET	1	0	0
											}
										}
									}
								}
							}
						}
					}
					JOINT right_clavicle
					{
						OFFSET	43.2	22.4	-70.8
						CHANNELS 3  Xrotation Yrotation Zrotation
						JOINT right_shoulder
						{
							OFFSET	93.9	-5.79999	48.7
							CHANNELS 3  Xrotation Yrotation Zrotation
							JOINT right_elbow
							{
								OFFSET	291.4	-30.8	15.2
								CHANNELS 3  Xrotation Yrotation Zrotation
								JOINT right_lowarm_twist
								{
									OFFSET	110.7	-3.89999	13.6
									CHANNELS 3  Xrotation Yrotation Zrotation
									JOINT right_hand
									{
										OFFSET	110.7	-3.89999	13.6
										CHANNELS 3  Xrotation Yrotation Zrotation
										JOINT right_ee
										{
											OFFSET	80.8	-5.10001	12.1
											CHANNELS 3  Xrotation Yrotation Zrotation
											End Site
											{
												OFFSET	1	0	0
											}
										}
									}
								}
							}
						}
					}
				}
			}
		}
	}
	JOINT left_hip
	{
		OFFSET	-82.8	-127.5	0.300001
		CHANNELS 3  Xrotation Yrotation Zrotation
		JOINT left_knee
		{
			OFFSET	-28.2	-396.7	2.2
			CHANNELS 3  Xrotation Yrotation Zrotation
			JOINT left_ankle
			{
				OFFSET	-11.7	-411.3	35.4
				CHANNELS 3  Xrotation Yrotation Zrotation
				JOINT left_toes
				{
					OFFSET	0	-60	-88.6
					CHANNELS 3  Xrotation Yrotation Zrotation
					JOINT left_foot_ee
					{
						OFFSET	-22.5	-16.5	-42.2
						CHANNELS 3  Xrotation Yrotation Zrotation
						End Site
						{
							OFFSET	1	0	0
						}
					}
				}
			}
		}
	}
	JOINT right_hip
	{
		OFFSET	82.8	-127.5	0.300001
		CHANNELS 3  Xrotation Yrotation Zrotation
		JOINT right_knee
		{
			OFFSET	28.2	-396.7	2.2
			CHANNELS 3  Xrotation Yrotation Zrotation
			JOINT right_ankle
			{
				OFFSET	11.7	-411.3	35.4
				CHANNELS 3  Xrotation Yrotation Zrotation
				JOINT right_toes
				{
					OFFSET	0	-60	-88.6
					CHANNELS 3  Xrotation Yrotation Zrotation
					JOINT right_foot_ee
					{
						OFFSET	22.5	-16.5	-42.2
						CHANNELS 3  Xrotation Yrotation Zrotation
						End Site
						{
							OFFSET	1	0	0
						}
					}
				}
			}
		}
	}
}
MOTION
Frames: 13
Frame Time: 0.02
1828.74 654.627 -1534.01 -58.3424 81.9649 61.3504 5.70327 0.223659 0.508926 5.70339 0.190822 0.522126 5.70499 0.131177 0.540205 5.70465 0.214845 0.512709 -12.6192 8.35723 2.69216 -12.7214 14.1809 5.02834 -0.0 0.0 -0.0 -1.83456 24.5459 0.381104 -28.1217 17.4102 72.1297 0.586863 -16.2101 0.0835764 -25.6314 -1.56819 2.84989 1.23722 27.8822 17.9664 -0.0 0.0 -0.0 10.4997 0.837162 -20.7364 3.93779 15.0788 -71.5838 1.61945 38.7347 -0.569295 -21.7384 1.24975 -2.46605 0.0692135 4.76783 1.5535 0.0 0.0 0.0 32.7295 2.29819 -13.3895 -4.35798 0.154739 0.650757 -2.86122 -24.8741 0.504748 -19.3712 0.0 0.0 -0.0 0.0 -0.0 -14.1067 27.2344 -5.77424 1.49465 0.0644279 0.220301 41.717 -15.2127 5.08704 -26.6706 0.0 0.0 0.0 0.0 0.0 
1810.03 646.816 -1526.36 -51.4756 80.9954 53.9639 5.65808 0.357658 0.494855 5.65816 0.325445 0.51661 5.66099 0.265156 0.549993 5.66074 0.348688 0.501216 -12.6872 9.2549 1.93076 -12.8437 16.3757 4.58701 -0.0 0.0 -0.0 -2.50592 24.4418 -0.536753 -26.5778 15.795 73.6047 0.622971 -17.1504 0.0939407 -23.3146 -1.37551 2.62403 2.0099 29.5954 22.9076 -0.0 0.0 -0.0 10.7027 1.88371 -21.2155 3.47969 15.3987 -71.5472 1.60741 38.5261 -0.561774 -22.8588 1.33869 -2.5787 1.1007 3.16815 -6.07137 0.0 0.0 0.0 32.601 1.84466 -13.4108 -8.27937 0.251314 1.24468 3.44831 -25.7294 -0.603224 -16.0659 0.0 0.0 -0.0 0.0 -0.0 -13.2552 28.2557 -5.04269 -3.87676 -0.140092 -0.578358 42.2135 -14.9731 5.12566 -22.1785 0.0 0.0 0.0 0.0 0.0 
1784.94 647.774 -1522.4 -52.0899 80.9436 54.3632 5.73524 0.447051 0.504451 5.73528 0.414046 0.531875 5.73905 0.352261 0.574662 5.73886 0.438596 0.511819 -11.6126 10.0953 2.81975 -11.7425 17.3 5.52153 -0.0 0.0 -0.0 -2.76965 24.0917 -0.958243 -25.002 13.2257 73.7152 0.550058 -15.2422 0.0736002 -23.339 -1.37749 2.62645 2.25558 29.6514 24.3824 -0.0 0.0 -0.0 10.8755 1.4237 -21.5586 1.35825 14.0984 -70.3877 1.51501 36.8855 -0.505258 -21.6127 1.2399 -2.45329 2.28847 4.85932 -13.4871 0.0 0.0 0.0 30.2524 2.2341 -12.8353 -6.98016 0.223826 1.04721 7.79576 -26.7286 -1.35829 -14.3356 0.0 0.0 -0.0 0.0 -0.0 -13.7664 28.581 -4.33803 -5.79088 -0.194742 -0.867016 41.478 -14.007 5.0481 -20.1741 0.0 0.0 0.0 0.0 0.0 
1756.9 648.075 -1517.5 -53.8362 81.1313 56.0471 5.689 0.47737 0.501831 5.68903 0.44447 0.53119 5.69309 0.38211 0.577674 5.69293 0.468546 0.510079 -11.1115 11.1302 2.29757 -11.272 19.5471 5.23605 -0.0 0.0 -0.0 -3.76504 24.4668 -2.22684 -22.5621 11.8305 75.1506 0.603454 -16.6433 0.0882679 -22.4779 -1.3082 2.54059 2.76045 29.8836 27.5002 -0.0 0.0 -0.0 10.9136 0.215203 -21.5697 -1.10888 13.2097 -69.9261 1.41707 35.0659 -0.447717 -21.268 1.21306 -2.41824 2.75515 3.9589 -17.1264 0.0 0.0 0.0 30.7712 1.97278 -12.6886 -12.9603 0.313079 1.96007 12.5455 -28.7766 -2.19671 -12.5764 0.0 0.0 -0.0 0.0 -0.0 -12.8068 27.9094 -5.15443 -10.4985 -0.287884 -1.58321 41.5817 -15.7444 5.08421 -17.4535 0.0 0.0 0.0 0.0 0.0 
1731.54 647.166 -1515.9 -59.3194 81.9538 62.3051 5.71448 0.352901 0.436547 5.71453 0.324408 0.458118 5.71705 0.271197 0.491492 5.71689 0.345414 0.442495 -8.9261 11.4219 2.53224 -8.99514 19.6768 5.16661 -0.0 0.0 -0.0 -4.09285 24.0212 -2.77326 -20.6125 10.5648 76.574 0.63632 -17.4957 0.0979154 -22.4884 -1.30904 2.54165 2.87773 30.055 28.2562 -0.0 0.0 -0.0 10.8982 1.06041 -21.5868 -3.5511 12.2766 -69.016 1.30835 32.9464 -0.386899 -20.388 1.1455 -2.32801 3.85377 5.67424 -24.3041 0.0 0.0 0.0 29.9167 2.35064 -12.7054 -14.2726 0.319889 2.16131 15.3977 -28.6428 -2.65411 -11.0559 0.0 0.0 -0.0 0.0 -0.0 -12.3786 25.0792 -6.41947 -15.2885 -0.321993 -2.31714 41.4384 -14.0559 5.04538 -14.5513 0.0 0.0 0.0 0.0 0.0 
1707.94 649.794 -1513.09 -64.6927 82.7528 67.8281 5.51088 0.302748 0.371177 5.51091 0.278516 0.389689 5.51276 0.231741 0.419195 5.51264 0.295037 0.377335 -8.39868 11.8015 2.50067 -8.45112 20.342 5.13668 -0.0 0.0 -0.0 -4.96901 23.9157 -4.00132 -15.4135 9.36779 77.1017 0.692934 -18.9453 0.115619 -21.6581 -1.24345 2.4579 3.32433 30.177 31.1065 -0.0 0.0 -0.0 10.8864 0.405931 -21.5242 -6.6688 10.9515 -68.649 1.17615 30.2253 -0.317639 -20.1751 1.12937 -2.30603 4.7588 5.64735 -31.2132 0.0 0.0 0.0 26.5933 2.50828 -12.4132 -11.4523 0.299567 1.72909 18.8522 -29.0012 -3.20451 -9.77953 0.0 0.0 -0.0 0.0 -0.0 -11.634 24.8255 -6.93229 -20.1316 -0.294052 -3.05949 40.5996 -13.7378 4.96794 -11.3283 0.0 0.0 0.0 0.0 0.0 
1683.76 656.279 -1508.69 -73.0568 84.0179 77.1036 5.41892 0.159627 0.130807 5.41892 0.15098 0.140699 5.41929 0.133497 0.157384 5.41929 0.156678 0.134326 -9.69427 11.4544 1.40869 -9.81724 20.5965 4.21646 -0.0 0.0 -0.0 -5.54449 24.3186 -4.68441 -10.5176 7.21121 76.393 0.899051 -24.0062 0.191154 -20.8023 -1.17713 2.37061 3.69482 30.4618 33.5687 -0.0 0.0 -0.0 10.7214 -0.728575 -21.1081 -9.45326 9.83947 -68.2838 0.991308 26.1535 -0.230266 -19.8755 1.1068 -2.27499 5.93841 6.14748 -40.7792 0.0 0.0 0.0 23.6765 2.84034 -12.6992 -10.1471 0.282967 1.52951 22.1653 -29.9533 -3.74065 -8.25219 0.0 0.0 -0.0 0.0 -0.0 -8.78145 22.1246 -8.2355 -24.6788 -0.210838 -3.75212 38.5214 -13.5297 4.77811 -9.00545 0.0 0.0 0.0 0.0 0.0 
1659.1 666.488 -1505.31 -78.0503 84.4914 82.274 5.26036 0.0881188 0.156632 5.26037 0.0779733 0.161922 5.26058 0.0580389 0.170088 5.26055 0.0841727 0.158787 -9.66631 11.4923 1.14549 -9.79257 20.8429 3.96589 -0.0 0.0 -0.0 -5.20164 24.2438 -4.23471 -7.10332 6.08706 76.4699 0.983846 -25.9826 0.226987 -20.0722 -1.1216 2.29539 3.87552 30.3685 34.7778 -0.0 0.0 -0.0 10.7208 -0.847593 -21.0989 -13.1862 8.6059 -68.0301 0.849469 22.8213 -0.17145 -19.9772 1.11443 -2.28554 6.59988 6.08645 -46.9776 0.0 0.0 0.0 21.2238 3.23754 -12.5224 -9.08044 0.266027 1.36672 23.5295 -30.583 -3.96987 -7.23876 0.0 0.0 -0.0 0.0 -0.0 -6.54299 21.6208 -9.14797 -28.0299 -0.11447 -4.2573 38.7228 -12.4022 4.78376 -7.14976 0.0 0.0 0.0 0.0 0.0 
1641.91 667.412 -1503.92 -81.2041 84.4268 85.7569 5.46835 0.0435469 0.232398 5.46838 0.0286706 0.234698 5.46847 0.00124024 0.236439 5.46839 0.0385657 0.233276 -9.96914 11.2588 0.710585 -10.1097 20.7258 3.53938 -0.0 0.0 -0.0 -4.41508 23.2363 -3.4037 -4.2241 4.97148 76.5086 1.08251 -28.2013 0.271927 -19.5492 -1.0824 2.24106 3.90704 30.3911 34.9944 -0.0 0.0 -0.0 10.9731 -2.11439 -21.53 -16.2231 6.75977 -67.483 0.748853 20.3528 -0.134423 -19.6513 1.09001 -2.25169 7.09404 6.00843 -52.1305 0.0 0.0 0.0 19.2346 3.8376 -12.6948 -8.42172 0.254053 1.26635 26.9596 -31.0551 -4.47439 -5.96907 0.0 0.0 -0.0 0.0 -0.0 -5.09602 17.726 -10.1167 -30.9314 -0.00726764 -4.68963 39.4099 -11.5429 4.83725 -5.87235 0.0 0.0 0.0 0.0 0.0 
1614.67 673.644 -1499.38 -84.6664 85.6657 89.5541 5.39935 -0.103857 0.0972792 5.39935 -0.109836 0.0904734 5.39918 -0.119687 0.0769707 5.39919 -0.106029 0.0949071 -11.5476 10.1881 0.0632643 -11.7337 19.254 2.9027 -0.0 0.0 -0.0 -3.90143 23.5331 -2.62216 -1.7863 4.03653 75.999 1.16803 -30.0529 0.313561 -19.1138 -1.05016 2.19557 3.85719 29.5502 34.5808 -0.0 0.0 -0.0 10.5931 -3.60257 -20.633 -18.4097 4.33096 -67.0976 0.664613 18.2232 -0.106593 -20.1412 1.1268 -2.30252 7.47415 5.36012 -56.9982 0.0 0.0 0.0 16.0456 4.47408 -12.5947 -8.17118 0.249196 1.22821 28.3442 -31.6081 -4.69344 -5.24894 0.0 0.0 -0.0 0.0 -0.0 -3.33224 14.9763 -10.1375 -34.4876 0.153811 -5.21144 41.1835 -10.1981 4.98046 -4.84114 0.0 0.0 0.0 0.0 0.0 
1602.12 674.627 -1496.22 -71.3594 85.1691 76.5873 5.60766 -0.102959 -0.106715 5.60766 -0.0959599 -0.11305 5.60785 -0.0824922 -0.123222 5.60784 -0.100918 -0.108647 -12.7424 8.71788 -0.332119 -12.9192 16.7813 2.27947 -0.0 0.0 -0.0 -3.14148 20.8862 -2.11046 0.248077 0.129489 75.5257 1.02709 -26.9658 0.246264 -18.6932 -1.01934 2.15139 3.46656 28.328 31.8017 -0.0 0.0 -0.0 10.3706 -4.98982 -20.0691 -20.0403 2.05706 -66.6692 0.607979 16.7611 -0.0895685 -25.2859 1.53887 -2.8167 7.31943 0.569696 -58.6814 0.0 0.0 0.0 13.4375 5.69407 -12.6103 -2.2907 0.0875162 0.340629 22.189 -30.668 -3.77955 -6.7805 0.0 0.0 -0.0 0.0 -0.0 -2.61865 12.9133 -9.65883 -37.13 0.294347 -5.59229 40.899 -10.2036 4.95615 -2.22757 0.0 0.0 0.0 0.0 0.0 
1586.57 677.536 -1492.82 -59.1516 84.9267 64.3307 5.62122 -0.154551 -0.0497918 5.62121 -0.15107 -0.0595254 5.62138 -0.143345 -0.0762724 5.62141 -0.153592 -0.0526764 -13.9796 9.15804 -0.674037 -14.2263 17.8807 2.29207 -0.0 0.0 -0.0 -2.57469 20.3613 -1.38494 2.91721 1.5287 75.0646 1.20205 -30.771 0.330783 -17.7862 -0.953991 2.05538 3.78269 27.8524 33.8858 -0.0 0.0 -0.0 10.2414 -6.13023 -19.7122 -21.1127 0.733663 -66.4418 0.569372 15.7513 -0.0787609 -21.069 1.19766 -2.39793 7.79737 3.89858 -62.5365 0.0 0.0 0.0 12.8197 5.75095 -12.546 -4.72637 0.16554 0.706263 26.8385 -31.0239 -4.45615 -4.78926 0.0 0.0 -0.0 0.0 -0.0 -0.943832 11.1757 -8.12423 -42.8057 0.654844 -6.38652 40.1851 -8.51501 4.8832 -2.34776 0.0 0.0 0.0 0.0 0.0 
1564.93 685.517 -1488.64 -47.266 85.4824 52.5673 5.25555 -0.355536 -0.206538 5.25551 -0.341673 -0.228743 5.2569 -0.311835 -0.267998 5.25698 -0.350246 -0.215386 -13.9929 9.07937 -1.17563 -14.242 18.0358 1.79413 -0.0 0.0 -0.0 -1.53596 19.5448 0.00684867 5.33652 1.79419 73.6046 1.13989 -29.4511 0.299598 -16.9927 -0.898085 1.97056 3.70882 26.1451 33.1453 -0.0 0.0 -0.0 10.3344 -7.13891 -19.7971 -22.7531 -1.98652 -64.7319 0.532897 14.7879 -0.0691544 -21.6481 1.24267 -2.45689 7.8331 3.11621 -63.7957 0.0 0.0 0.0 10.25 6.52005 -12.2632 -4.91512 0.170936 0.734727 24.9282 -30.6574 -4.17211 -5.44257 0.0 0.0 -0.0 0.0 -0.0 8.92126 8.07657 -7.92337 -47.5381 1.01458 -7.01939 37.0778 -8.30326 4.6019 -3.14864 0.0 0.0 0.0 0.0 0.0 
